<svg width="195" height="77" viewBox="0 0 195 77" fill="none" xmlns="http://www.w3.org/2000/svg">
<path d="M85.8458 58.5614C83.5263 58.5614 81.4386 58.1707 79.5829 57.3895C77.7271 56.5757 76.2692 55.4363 75.2088 53.9714C74.1483 52.5065 73.6182 50.7975 73.6182 48.8443H79.6823C79.8148 50.3092 80.3948 51.5136 81.422 52.4577C82.4824 53.4018 83.957 53.8737 85.8458 53.8737C87.801 53.8737 89.3252 53.4179 90.4188 52.5065C91.5123 51.5624 92.059 50.358 92.059 48.8932C92.059 47.7538 91.7111 46.826 91.0152 46.1099C90.3524 45.3938 89.5074 44.8403 88.4802 44.4497C87.4861 44.0591 86.0943 43.6359 84.3049 43.1801C82.0515 42.5942 80.2124 42.0082 78.7876 41.4223C77.3958 40.8038 76.2029 39.8597 75.2088 38.5902C74.2146 37.3206 73.7176 35.6279 73.7176 33.5119C73.7176 31.5588 74.2146 29.8498 75.2088 28.3849C76.2029 26.92 77.5946 25.7969 79.384 25.0157C81.1735 24.2344 83.2445 23.8438 85.5973 23.8438C88.9442 23.8438 91.678 24.6738 93.7988 26.334C95.9527 27.9617 97.1457 30.2079 97.3776 33.0725H91.1146C91.0152 31.8354 90.4188 30.7775 89.3252 29.8986C88.2317 29.0197 86.7902 28.5802 85.0008 28.5802C83.3772 28.5802 82.0515 28.9872 81.0243 29.8009C79.9971 30.6147 79.4835 31.7866 79.4835 33.3166C79.4835 34.3584 79.7983 35.221 80.4279 35.9046C81.0907 36.5557 81.919 37.0765 82.9132 37.4671C83.9073 37.8577 85.266 38.2809 86.989 38.7367C89.2755 39.3551 91.1313 39.9737 92.5561 40.5922C94.0142 41.2106 95.2402 42.1711 96.2343 43.4731C97.2615 44.7427 97.7752 46.4517 97.7752 48.6002C97.7752 50.3256 97.2948 51.9531 96.3338 53.4831C95.406 55.0132 94.0306 56.25 92.2082 57.1941C90.4187 58.1056 88.298 58.5614 85.8458 58.5614ZM111.072 35.8557V50.7487C111.072 51.7577 111.304 52.4902 111.768 52.946C112.265 53.3691 113.094 53.5808 114.253 53.5808H117.733V58.2196H113.259C110.708 58.2196 108.753 57.6336 107.394 56.4617C106.035 55.2898 105.356 53.3855 105.356 50.7487V35.8557H102.125V31.3146H105.356V24.625H111.072V31.3146H117.733V35.8557H111.072ZM121.067 44.645C121.067 41.9431 121.63 39.5504 122.757 37.4671C123.916 35.3838 125.474 33.7724 127.429 32.633C129.417 31.4611 131.604 30.8752 133.99 30.8752C136.144 30.8752 138.016 31.2983 139.607 32.1447C141.231 32.9585 142.523 33.9839 143.484 35.221V31.3146H149.2V58.2196H143.484V54.2156C142.523 55.4851 141.214 56.543 139.557 57.3895C137.9 58.2359 136.012 58.659 133.891 58.659C131.538 58.659 129.384 58.0731 127.429 56.9012C125.474 55.6968 123.916 54.0366 122.757 51.9206C121.63 49.7721 121.067 47.347 121.067 44.645ZM143.484 44.7427C143.484 42.8872 143.086 41.2758 142.291 39.9086C141.529 38.5414 140.518 37.4996 139.259 36.7835C138 36.0674 136.641 35.7093 135.183 35.7093C133.725 35.7093 132.367 36.0674 131.107 36.7835C129.848 37.4671 128.821 38.4925 128.025 39.8598C127.263 41.1945 126.882 42.7895 126.882 44.645C126.882 46.5005 127.263 48.1282 128.025 49.5279C128.821 50.9277 129.848 52.0019 131.107 52.7507C132.4 53.4668 133.758 53.8249 135.183 53.8249C136.641 53.8249 138 53.4668 139.259 52.7507C140.518 52.0346 141.529 50.9928 142.291 49.6256C143.086 48.2259 143.484 46.5982 143.484 44.7427ZM181.297 31.3146L164.496 70.8663H158.631L164.198 57.7801L153.412 31.3146H159.725L167.429 51.8229L175.432 31.3146H181.297ZM187.86 58.5614C186.832 58.5614 185.971 58.2196 185.275 57.5359C184.579 56.8523 184.231 56.0059 184.231 54.9968C184.231 53.9877 184.579 53.1413 185.275 52.4577C185.971 51.7741 186.832 51.4323 187.86 51.4323C188.854 51.4323 189.699 51.7741 190.395 52.4577C191.091 53.1413 191.438 53.9877 191.438 54.9968C191.438 56.0059 191.091 56.8523 190.395 57.5359C189.699 58.2196 188.854 58.5614 187.86 58.5614Z" fill="#152C5B"/>
<path d="M51.6174 54.2286V22.1446C51.6174 20.919 51.0087 19.7704 49.9864 19.0674L29.7527 5.15371C28.5165 4.3036 26.887 4.24731 25.5929 5.01001L5.67958 16.7473C4.52792 17.4261 3.82324 18.6488 3.82324 19.9682V61.0366C3.82324 63.1111 5.53509 64.7927 7.64677 64.7927H27.7203H47.7938C49.9056 64.7927 51.6174 63.1111 51.6174 61.0366V56.2829" stroke="#152C5B" stroke-width="4" stroke-linecap="square"/>
</svg>
