<svg width="102" height="41" viewBox="0 0 102 41" fill="none" xmlns="http://www.w3.org/2000/svg">
<path d="M44.904 31.182C43.6907 31.182 42.5987 30.974 41.628 30.558C40.6573 30.1247 39.8947 29.518 39.34 28.738C38.7853 27.958 38.508 27.048 38.508 26.008H41.68C41.7493 26.788 42.0527 27.4293 42.59 27.932C43.1447 28.4347 43.916 28.686 44.904 28.686C45.9267 28.686 46.724 28.4433 47.296 27.958C47.868 27.4553 48.154 26.814 48.154 26.034C48.154 25.4273 47.972 24.9333 47.608 24.552C47.2613 24.1707 46.8193 23.876 46.282 23.668C45.762 23.46 45.034 23.2347 44.098 22.992C42.9193 22.68 41.9573 22.368 41.212 22.056C40.484 21.7267 39.86 21.224 39.34 20.548C38.82 19.872 38.56 18.9707 38.56 17.844C38.56 16.804 38.82 15.894 39.34 15.114C39.86 14.334 40.588 13.736 41.524 13.32C42.46 12.904 43.5433 12.696 44.774 12.696C46.5247 12.696 47.9547 13.138 49.064 14.022C50.1907 14.8887 50.8147 16.0847 50.936 17.61H47.66C47.608 16.9513 47.296 16.388 46.724 15.92C46.152 15.452 45.398 15.218 44.462 15.218C43.6127 15.218 42.9193 15.4347 42.382 15.868C41.8447 16.3013 41.576 16.9253 41.576 17.74C41.576 18.2947 41.7407 18.754 42.07 19.118C42.4167 19.4647 42.85 19.742 43.37 19.95C43.89 20.158 44.6007 20.3833 45.502 20.626C46.698 20.9553 47.6687 21.2847 48.414 21.614C49.1767 21.9433 49.818 22.4547 50.338 23.148C50.8753 23.824 51.144 24.734 51.144 25.878C51.144 26.7967 50.8927 27.6633 50.39 28.478C49.9047 29.2927 49.1853 29.9513 48.232 30.454C47.296 30.9393 46.1867 31.182 44.904 31.182ZM58.0994 19.092V27.022C58.0994 27.5593 58.2207 27.9493 58.4634 28.192C58.7234 28.4173 59.1567 28.53 59.7634 28.53H61.5834V31H59.2434C57.9087 31 56.8861 30.688 56.1754 30.064C55.4647 29.44 55.1094 28.426 55.1094 27.022V19.092H53.4194V16.674H55.1094V13.112H58.0994V16.674H61.5834V19.092H58.0994ZM63.3272 23.772C63.3272 22.3333 63.6219 21.0593 64.2112 19.95C64.8179 18.8407 65.6326 17.9827 66.6552 17.376C67.6952 16.752 68.8392 16.44 70.0872 16.44C71.2139 16.44 72.1932 16.6653 73.0252 17.116C73.8746 17.5493 74.5506 18.0953 75.0532 18.754V16.674H78.0432V31H75.0532V28.868C74.5506 29.544 73.8659 30.1073 72.9992 30.558C72.1326 31.0087 71.1446 31.234 70.0352 31.234C68.8046 31.234 67.6779 30.922 66.6552 30.298C65.6326 29.6567 64.8179 28.7727 64.2112 27.646C63.6219 26.502 63.3272 25.2107 63.3272 23.772ZM75.0532 23.824C75.0532 22.836 74.8452 21.978 74.4292 21.25C74.0306 20.522 73.5019 19.9673 72.8432 19.586C72.1846 19.2047 71.4739 19.014 70.7112 19.014C69.9486 19.014 69.2379 19.2047 68.5792 19.586C67.9206 19.95 67.3832 20.496 66.9672 21.224C66.5686 21.9347 66.3692 22.784 66.3692 23.772C66.3692 24.76 66.5686 25.6267 66.9672 26.372C67.3832 27.1173 67.9206 27.6893 68.5792 28.088C69.2552 28.4693 69.9659 28.66 70.7112 28.66C71.4739 28.66 72.1846 28.4693 72.8432 28.088C73.5019 27.7067 74.0306 27.152 74.4292 26.424C74.8452 25.6787 75.0532 24.812 75.0532 23.824ZM94.8323 16.674L86.0443 37.734H82.9763L85.8883 30.766L80.2463 16.674H83.5483L87.5783 27.594L91.7643 16.674H94.8323ZM98.2651 31.182C97.7278 31.182 97.2771 31 96.9131 30.636C96.5491 30.272 96.3671 29.8213 96.3671 29.284C96.3671 28.7467 96.5491 28.296 96.9131 27.932C97.2771 27.568 97.7278 27.386 98.2651 27.386C98.7851 27.386 99.2271 27.568 99.5911 27.932C99.9551 28.296 100.137 28.7467 100.137 29.284C100.137 29.8213 99.9551 30.272 99.5911 30.636C99.2271 31 98.7851 31.182 98.2651 31.182Z" fill="#152C5B"/>
<path d="M27 28.875V11.7913C27 11.1387 26.6816 10.5271 26.1469 10.1528L15.5631 2.74419C14.9165 2.29153 14.0641 2.26156 13.3872 2.66767L2.97101 8.91739C2.3686 9.27884 2 9.92986 2 10.6324V32.5C2 33.6046 2.89543 34.5 4 34.5H14.5H25C26.1046 34.5 27 33.6046 27 32.5V29.9688" stroke="#152C5B" stroke-width="4" stroke-linecap="square"/>
</svg>
