<svg width="39" height="39" viewBox="0 0 39 39" fill="none" xmlns="http://www.w3.org/2000/svg">
<path d="M29.2764 2.74039C29.2764 2.74039 29.2035 2.00269 27.9284 1.46641C23.4425 -0.420224 23.8477 20.8002 23.8477 20.8002" stroke="#FF498B" stroke-width="2"/>
<path d="M37.4802 4.46369C37.4802 4.46369 37.4913 4.11215 36.2161 3.57587C31.7302 1.68924 32.0001 19 32.0001 19" stroke="#FF498B" stroke-width="2"/>
<path d="M23.9577 6.91265L32.5079 6.23037" stroke="#FF498B" stroke-width="2"/>
<path d="M23.7662 11.7025L31.742 10.2537" stroke="#FF498B" stroke-width="2"/>
<path d="M23.7662 15.7151L31.742 14.2663" stroke="#FF498B" stroke-width="2"/>
<path d="M1 21C1 21 5.71568 13.8276 12.5 15.1917C16.6102 16.0182 20.3765 20.2429 24.5 21C34.3484 22.8083 38 15.1917 38 15.1917" stroke="#152C5B" stroke-width="2" stroke-linecap="round"/>
<path d="M1 28.9808C1 28.9808 5.71568 21.8084 12.5 23.1725C16.6102 23.999 20.3765 28.2237 24.5 28.9808C34.3484 30.7892 38 23.1725 38 23.1725" stroke="#152C5B" stroke-width="2" stroke-linecap="round"/>
<path d="M1 36.9617C1 36.9617 5.71568 29.7892 12.5 31.1534C16.6102 31.9798 20.3765 36.2045 24.5 36.9617C34.3484 38.77 38 31.1534 38 31.1534" stroke="#152C5B" stroke-width="2" stroke-linecap="round"/>
</svg>
